<svg width="150" height="30" viewBox="0 0 150 30" fill="none" xmlns="http://www.w3.org/2000/svg">
<g clip-path="url(#clip0_1982_10717)">
<path d="M143.225 0H6.77507C3.0333 0 0 2.98477 0 6.66667V23.3333C0 27.0152 3.0333 30 6.77507 30H143.225C146.967 30 150 27.0152 150 23.3333V6.66667C150 2.98477 146.967 0 143.225 0Z" fill="#5500FA"/>
<path d="M19.0317 12.097C18.9661 11.5232 18.6951 11.0788 18.2187 10.7636C17.7424 10.4444 17.1429 10.2848 16.4203 10.2848C15.9029 10.2848 15.4554 10.3656 15.0776 10.5273C14.6998 10.6848 14.4062 10.903 14.1968 11.1818C13.9916 11.4565 13.8888 11.7697 13.8888 12.1212C13.8888 12.4162 13.9586 12.6707 14.0983 12.8848C14.242 13.099 14.4288 13.2788 14.6588 13.4243C14.8928 13.5656 15.1433 13.6848 15.4101 13.7819C15.6771 13.8748 15.9337 13.9515 16.18 14.0121L17.4119 14.3272C17.8143 14.4243 18.2269 14.5556 18.6498 14.7212C19.0729 14.8869 19.4649 15.1051 19.8262 15.3757C20.1876 15.6464 20.4791 15.9819 20.7009 16.3819C20.9267 16.7819 21.0397 17.2607 21.0397 17.8181C21.0397 18.5212 20.8548 19.1455 20.4853 19.6909C20.1199 20.2364 19.5882 20.6667 18.8901 20.9819C18.1962 21.2969 17.3565 21.4545 16.371 21.4545C15.4265 21.4545 14.6094 21.3071 13.9196 21.0121C13.2298 20.7172 12.6899 20.2989 12.2998 19.7576C11.9097 19.2121 11.6941 18.5656 11.6531 17.8181H13.5624C13.5994 18.2667 13.7472 18.6404 14.0059 18.9393C14.2687 19.2344 14.6033 19.4545 15.0099 19.6C15.4204 19.7415 15.87 19.8121 16.3586 19.8121C16.8966 19.8121 17.3749 19.7293 17.7937 19.5636C18.2166 19.394 18.5493 19.1596 18.7916 18.8607C19.0338 18.5576 19.155 18.204 19.155 17.8C19.155 17.4323 19.0482 17.1313 18.8346 16.8969C18.6252 16.6627 18.3399 16.4687 17.9786 16.3152C17.6214 16.1616 17.2169 16.0263 16.7651 15.9091L15.2746 15.5091C14.2646 15.2384 13.4639 14.8404 12.8726 14.3152C12.2854 13.7899 11.9918 13.0949 11.9918 12.2303C11.9918 11.5151 12.1889 10.8909 12.5831 10.3576C12.9773 9.82423 13.5111 9.4101 14.1845 9.11514C14.858 8.81615 15.6176 8.66666 16.4634 8.66666C17.3174 8.66666 18.071 8.81414 18.7238 9.10908C19.3807 9.40403 19.8981 9.8101 20.2758 10.3273C20.6536 10.8404 20.8508 11.4303 20.8672 12.097H19.0317Z" fill="#FDFDFD"/>
<path d="M22.1792 21.2485V8.83636H26.6754C27.6567 8.83636 28.4697 9.01213 29.1144 9.36363C29.759 9.71515 30.2415 10.196 30.5619 10.8061C30.882 11.4121 31.0422 12.095 31.0422 12.8546C31.0422 13.6181 30.88 14.3051 30.5556 14.9152C30.2353 15.5212 29.7509 16.002 29.1021 16.3576C28.4574 16.7091 27.6464 16.8848 26.6692 16.8848H23.5773V15.2969H26.4968C27.1167 15.2969 27.6197 15.1919 28.0058 14.9819C28.3917 14.7677 28.675 14.4768 28.8558 14.1091C29.0364 13.7415 29.1268 13.3232 29.1268 12.8546C29.1268 12.3859 29.0364 11.9697 28.8558 11.6061C28.675 11.2424 28.3896 10.9576 27.9995 10.7515C27.6136 10.5455 27.1044 10.4424 26.4722 10.4424H24.0823V21.2485H22.1792Z" fill="#FDFDFD"/>
<path d="M32.2063 21.2485V8.83636H34.1094V19.6364H39.8251V21.2485H32.2063Z" fill="#FDFDFD"/>
<path d="M42.7568 21.2485H40.7366L45.2759 8.83636H47.4748L52.0141 21.2485H49.9939L46.4276 11.0909H46.3291L42.7568 21.2485ZM43.0955 16.3879H49.6489V17.9636H43.0955V16.3879Z" fill="#FDFDFD"/>
<path d="M59.5467 12.097C59.481 11.5232 59.21 11.0788 58.7337 10.7636C58.2573 10.4444 57.6578 10.2848 56.9352 10.2848C56.4178 10.2848 55.9703 10.3656 55.5925 10.5273C55.2147 10.6848 54.9211 10.903 54.7117 11.1818C54.5065 11.4565 54.4037 11.7697 54.4037 12.1212C54.4037 12.4162 54.4735 12.6707 54.6131 12.8848C54.7569 13.099 54.9437 13.2788 55.1737 13.4243C55.4077 13.5656 55.6582 13.6848 55.925 13.7819C56.192 13.8748 56.4486 13.9515 56.6949 14.0121L57.9268 14.3272C58.3292 14.4243 58.7418 14.5556 59.1647 14.7212C59.5877 14.8869 59.9799 15.1051 60.3411 15.3757C60.7025 15.6464 60.994 15.9819 61.2158 16.3819C61.4415 16.7819 61.5546 17.2607 61.5546 17.8181C61.5546 18.5212 61.3697 19.1455 61.0002 19.6909C60.6348 20.2364 60.1031 20.6667 59.405 20.9819C58.7111 21.2969 57.8714 21.4545 56.8859 21.4545C55.9414 21.4545 55.1243 21.3071 54.4345 21.0121C53.7447 20.7172 53.2048 20.2989 52.8147 19.7576C52.4246 19.2121 52.209 18.5656 52.168 17.8181H54.0773C54.1143 18.2667 54.2621 18.6404 54.5208 18.9393C54.7836 19.2344 55.1182 19.4545 55.5247 19.6C55.9353 19.7415 56.3849 19.8121 56.8735 19.8121C57.4115 19.8121 57.8898 19.7293 58.3086 19.5636C58.7315 19.394 59.0642 19.1596 59.3065 18.8607C59.5487 18.5576 59.6699 18.204 59.6699 17.8C59.6699 17.4323 59.5631 17.1313 59.3495 16.8969C59.1402 16.6627 58.8547 16.4687 58.4934 16.3152C58.1361 16.1616 57.7318 16.0263 57.28 15.9091L55.7895 15.5091C54.7795 15.2384 53.9788 14.8404 53.3875 14.3152C52.8004 13.7899 52.5067 13.0949 52.5067 12.2303C52.5067 11.5151 52.7039 10.8909 53.0981 10.3576C53.4922 9.82423 54.026 9.4101 54.6994 9.11514C55.3728 8.81615 56.1325 8.66666 56.9783 8.66666C57.8323 8.66666 58.5859 8.81414 59.2387 9.10908C59.8956 9.40403 60.413 9.8101 60.7907 10.3273C61.1685 10.8404 61.3657 11.4303 61.3821 12.097H59.5467Z" fill="#FDFDFD"/>
<path d="M62.8296 21.2485V8.83636H64.7327V14.2303H71.0212V8.83636H72.9305V21.2485H71.0212V15.8364H64.7327V21.2485H62.8296Z" fill="#FDFDFD"/>
<path d="M87.0535 12.097C86.9878 11.5232 86.7168 11.0788 86.2405 10.7636C85.7641 10.4444 85.1646 10.2848 84.442 10.2848C83.9247 10.2848 83.4771 10.3656 83.0993 10.5273C82.7216 10.6848 82.4279 10.903 82.2186 11.1818C82.0133 11.4565 81.9106 11.7697 81.9106 12.1212C81.9106 12.4162 81.9804 12.6707 82.1199 12.8848C82.2637 13.099 82.4506 13.2788 82.6805 13.4243C82.9145 13.5656 83.165 13.6848 83.4319 13.7819C83.6988 13.8748 83.9554 13.9515 84.2018 14.0121L85.4336 14.3272C85.8361 14.4243 86.2487 14.5556 86.6716 14.7212C87.0946 14.8869 87.4867 15.1051 87.848 15.3757C88.2094 15.6464 88.5008 15.9819 88.7226 16.3819C88.9484 16.7819 89.0614 17.2607 89.0614 17.8181C89.0614 18.5212 88.8766 19.1455 88.5071 19.6909C88.1416 20.2364 87.6099 20.6667 86.9118 20.9819C86.2179 21.2969 85.3782 21.4545 84.3927 21.4545C83.4482 21.4545 82.6312 21.3071 81.9413 21.0121C81.2515 20.7172 80.7117 20.2989 80.3216 19.7576C79.9314 19.2121 79.7159 18.5656 79.6748 17.8181H81.5842C81.6211 18.2667 81.769 18.6404 82.0277 18.9393C82.2904 19.2344 82.6251 19.4545 83.0316 19.6C83.4422 19.7415 83.8917 19.8121 84.3804 19.8121C84.9183 19.8121 85.3966 19.7293 85.8155 19.5636C86.2384 19.394 86.571 19.1596 86.8133 18.8607C87.0556 18.5576 87.1767 18.204 87.1767 17.8C87.1767 17.4323 87.0699 17.1313 86.8564 16.8969C86.647 16.6627 86.3615 16.4687 86.0003 16.3152C85.643 16.1616 85.2386 16.0263 84.7869 15.9091L83.2963 15.5091C82.2863 15.2384 81.4856 14.8404 80.8943 14.3152C80.3072 13.7899 80.0136 13.0949 80.0136 12.2303C80.0136 11.5151 80.2107 10.8909 80.6049 10.3576C80.9991 9.82423 81.5328 9.4101 82.2062 9.11514C82.8797 8.81615 83.6393 8.66666 84.4851 8.66666C85.3392 8.66666 86.0927 8.81414 86.7455 9.10908C87.4024 9.40403 87.9198 9.8101 88.2976 10.3273C88.6753 10.8404 88.8725 11.4303 88.8889 12.097H87.0535Z" fill="#FDFDFD"/>
<path d="M89.7141 10.4485V8.83636H99.4763V10.4485H95.5407V21.2485H93.6437V10.4485H89.7141Z" fill="#FDFDFD"/>
<path d="M108.611 8.83636H110.52V17C110.52 17.8687 110.313 18.6384 109.898 19.3091C109.483 19.9757 108.9 20.5011 108.149 20.8848C107.397 21.2647 106.517 21.4545 105.506 21.4545C104.5 21.4545 103.622 21.2647 102.87 20.8848C102.119 20.5011 101.536 19.9757 101.121 19.3091C100.706 18.6384 100.499 17.8687 100.499 17V8.83636H102.402V16.8485C102.402 17.4101 102.527 17.9091 102.778 18.3455C103.032 18.7819 103.392 19.1252 103.856 19.3757C104.32 19.6223 104.87 19.7455 105.506 19.7455C106.147 19.7455 106.699 19.6223 107.163 19.3757C107.631 19.1252 107.989 18.7819 108.235 18.3455C108.485 17.9091 108.611 17.4101 108.611 16.8485V8.83636Z" fill="#FDFDFD"/>
<path d="M116.371 21.2485H112.288V8.83636H116.5C117.736 8.83636 118.798 9.08485 119.685 9.58182C120.572 10.0748 121.251 10.7838 121.723 11.7091C122.2 12.6303 122.438 13.7353 122.438 15.0243C122.438 16.3172 122.198 17.4283 121.717 18.3576C121.241 19.2868 120.551 20.002 119.648 20.5031C118.744 21 117.652 21.2485 116.371 21.2485ZM114.191 19.6121H116.266C117.227 19.6121 118.026 19.4344 118.662 19.0788C119.299 18.7192 119.775 18.2 120.091 17.5212C120.407 16.8384 120.566 16.006 120.566 15.0243C120.566 14.0505 120.407 13.2242 120.091 12.5455C119.779 11.8667 119.313 11.3515 118.693 11C118.073 10.6485 117.303 10.4727 116.383 10.4727H114.191V19.6121Z" fill="#FDFDFD"/>
<path d="M125.708 8.83636V21.2485H123.805V8.83636H125.708Z" fill="#FDFDFD"/>
<path d="M138.421 15.0424C138.421 16.3677 138.175 17.5071 137.682 18.4605C137.19 19.4101 136.513 20.1415 135.656 20.6545C134.801 21.1636 133.83 21.4181 132.742 21.4181C131.65 21.4181 130.675 21.1636 129.816 20.6545C128.962 20.1415 128.289 19.4081 127.796 18.4545C127.303 17.5011 127.057 16.3636 127.057 15.0424C127.057 13.7172 127.303 12.5798 127.796 11.6303C128.289 10.6768 128.962 9.94544 129.816 9.43635C130.675 8.92322 131.65 8.66666 132.742 8.66666C133.83 8.66666 134.801 8.92322 135.656 9.43635C136.513 9.94544 137.19 10.6768 137.682 11.6303C138.175 12.5798 138.421 13.7172 138.421 15.0424ZM136.537 15.0424C136.537 14.0323 136.37 13.1818 136.038 12.4909C135.709 11.7959 135.257 11.2707 134.682 10.9151C134.111 10.5555 133.465 10.3757 132.742 10.3757C132.015 10.3757 131.366 10.5555 130.796 10.9151C130.225 11.2707 129.773 11.7959 129.441 12.4909C129.112 13.1818 128.948 14.0323 128.948 15.0424C128.948 16.0525 129.112 16.9051 129.441 17.6C129.773 18.2909 130.225 18.8161 130.796 19.1757C131.366 19.5313 132.015 19.7091 132.742 19.7091C133.465 19.7091 134.111 19.5313 134.682 19.1757C135.257 18.8161 135.709 18.2909 136.038 17.6C136.37 16.9051 136.537 16.0525 136.537 15.0424Z" fill="#FDFDFD"/>
</g>
<defs>
<clipPath id="clip0_1982_10717">
<rect width="150" height="30" rx="8" fill="white"/>
</clipPath>
</defs>
</svg>
